<?xml version="1.0" encoding="UTF-8" standalone="no"?>
<svg xmlns="http://www.w3.org/2000/svg" width="24" height="120" version="1.1" xmlns:xlink="http://www.w3.org/1999/xlink">
	<defs>
		<g id="icon">
			<path d="m 10.542,13.663 c 0.358,0.585 0.825,1.015 1.649,1.015 0.693,0 1.135,-0.346 1.135,-0.824 0,-0.573 -0.455,-0.776 -1.217,-1.11 l -0.418,-0.179 c -1.206,-0.514 -2.008,-1.158 -2.008,-2.519 0,-1.254 0.955,-2.208 2.448,-2.208 1.063,0 1.827,0.37 2.378,1.338 l -1.302,0.836 C 12.92,9.498 12.611,9.296 12.131,9.296 c -0.49,0 -0.8,0.311 -0.8,0.716 0,0.501 0.311,0.705 1.028,1.015 l 0.418,0.179 c 1.42,0.609 2.222,1.23 2.222,2.626 0,1.505 -1.182,2.329 -2.77,2.329 -1.552,0 -2.555,-0.74 -3.046,-1.709 l 1.359,-0.789 z m -5.905,0.145 c 0.263,0.466 0.501,0.86 1.076,0.86 0.549,0 0.896,-0.215 0.896,-1.05 V 7.934 h 1.672 v 5.707 c 0,1.731 -1.015,2.519 -2.496,2.519 -1.338,0 -2.113,-0.693 -2.508,-1.527 l 1.36,-0.825 z" />
			<path d="m 16.375,3.625 -1.75,1 0.5,0.875 3.71875,6.65625 L 15.125,18.5 l -0.5,0.84375 1.71875,1.03125 0.53125,-0.875 4,-6.8125 0.28125,-0.5 -0.28125,-0.5 -4,-7.1875 -0.5,-0.875 z" />
		</g>
	</defs>
	<use xlink:href="#icon" style="fill:#BBBBBB" />
	<use xlink:href="#icon" y="24" style="fill:#91CC42" />
	<use xlink:href="#icon" y="48" style="fill:#78B2F2" />
	<use xlink:href="#icon" y="72" style="fill:#E3B551" />
	<use xlink:href="#icon" y="96" style="fill:#F74687" />
</svg>