<?xml version="1.0" encoding="iso-8859-1"?>
<svg version="1.1" id="Layer_1" xmlns="http://www.w3.org/2000/svg" xmlns:xlink="http://www.w3.org/1999/xlink" x="0px" y="0px" viewBox="-293 337 24 120"
	 style="enable-background:new -293 337 24 120;" xml:space="preserve">
<g id="Grey">
	<path style="fill:#BBBBBB;" d="M-282.11,350.663c0.358,0.585,0.825,1.015,1.649,1.015c0.693,0,1.135-0.346,1.135-0.824
		c0-0.573-0.455-0.776-1.217-1.11l-0.418-0.179c-1.206-0.514-2.008-1.158-2.008-2.519c0-1.254,0.955-2.208,2.448-2.208
		c1.063,0,1.827,0.37,2.378,1.338l-1.302,0.836c-0.287-0.514-0.596-0.716-1.076-0.716c-0.49,0-0.8,0.311-0.8,0.716
		c0,0.501,0.311,0.705,1.028,1.015l0.418,0.179c1.42,0.609,2.222,1.23,2.222,2.626c0,1.505-1.182,2.329-2.77,2.329
		c-1.552,0-2.555-0.74-3.046-1.709L-282.11,350.663z M-288.015,350.808c0.263,0.466,0.523,0.86,1.098,0.86
		c0.549,0,0.917-0.215,0.917-1.05V345h2v5.641c0,1.731-1.201,2.519-2.681,2.519c-1.338,0-2.206-0.693-2.601-1.527L-288.015,350.808z
		"/>
	<polyline style="fill:none;stroke:#BBBBBB;stroke-width:2;stroke-linecap:square;stroke-miterlimit:10;" points="-276.652,342
		-272.652,349.167 -276.652,356 	"/>
	<path style="fill:none;stroke:#BBBBBB;stroke-width:2;stroke-linecap:round;stroke-miterlimit:10;" d="M-285.652,342"/>
</g>
<g id="Green">
	<path style="fill:#91CC41;" d="M-282.11,374.663c0.358,0.585,0.825,1.015,1.649,1.015c0.693,0,1.135-0.346,1.135-0.824
		c0-0.573-0.455-0.776-1.217-1.11l-0.418-0.179c-1.206-0.514-2.008-1.158-2.008-2.519c0-1.254,0.955-2.208,2.448-2.208
		c1.063,0,1.827,0.37,2.378,1.338l-1.302,0.836c-0.287-0.514-0.596-0.716-1.076-0.716c-0.49,0-0.8,0.311-0.8,0.716
		c0,0.501,0.311,0.705,1.028,1.015l0.418,0.179c1.42,0.609,2.222,1.23,2.222,2.626c0,1.505-1.182,2.329-2.77,2.329
		c-1.552,0-2.555-0.74-3.046-1.709L-282.11,374.663z M-288.015,374.808c0.263,0.466,0.523,0.86,1.098,0.86
		c0.549,0,0.917-0.215,0.917-1.05V369h2v5.641c0,1.731-1.201,2.519-2.681,2.519c-1.338,0-2.206-0.693-2.601-1.527L-288.015,374.808z
		"/>
	<polyline style="fill:none;stroke:#91CC41;stroke-width:2;stroke-linecap:square;stroke-miterlimit:10;" points="-276.652,366
		-272.652,373.167 -276.652,380 	"/>
	<path style="fill:none;stroke:#91CC41;stroke-width:2;stroke-linecap:round;stroke-miterlimit:10;" d="M-285.652,366"/>
</g>
<g id="Blue">
	<path style="fill:#78B2F2;" d="M-282.11,398.663c0.358,0.585,0.825,1.015,1.649,1.015c0.693,0,1.135-0.346,1.135-0.824
		c0-0.573-0.455-0.776-1.217-1.11l-0.418-0.179c-1.206-0.514-2.008-1.158-2.008-2.519c0-1.254,0.955-2.208,2.448-2.208
		c1.063,0,1.827,0.37,2.378,1.338l-1.302,0.836c-0.287-0.514-0.596-0.716-1.076-0.716c-0.49,0-0.8,0.311-0.8,0.716
		c0,0.501,0.311,0.705,1.028,1.015l0.418,0.179c1.42,0.609,2.222,1.23,2.222,2.626c0,1.505-1.182,2.329-2.77,2.329
		c-1.552,0-2.555-0.74-3.046-1.709L-282.11,398.663z M-288.015,398.808c0.263,0.466,0.523,0.86,1.098,0.86
		c0.549,0,0.917-0.215,0.917-1.05V393h2v5.641c0,1.731-1.201,2.519-2.681,2.519c-1.338,0-2.206-0.693-2.601-1.527L-288.015,398.808z
		"/>
	<polyline style="fill:none;stroke:#78B2F2;stroke-width:2;stroke-linecap:square;stroke-miterlimit:10;" points="-276.652,390
		-272.652,397.167 -276.652,404 	"/>
	<path style="fill:none;stroke:#78B2F2;stroke-width:2;stroke-linecap:round;stroke-miterlimit:10;" d="M-285.652,390"/>
</g>
<g id="Yellow">
	<path style="fill:#E3B551;" d="M-282.11,422.663c0.358,0.585,0.825,1.015,1.649,1.015c0.693,0,1.135-0.346,1.135-0.824
		c0-0.573-0.455-0.776-1.217-1.11l-0.418-0.179c-1.206-0.514-2.008-1.158-2.008-2.519c0-1.254,0.955-2.208,2.448-2.208
		c1.063,0,1.827,0.37,2.378,1.338l-1.302,0.836c-0.287-0.514-0.596-0.716-1.076-0.716c-0.49,0-0.8,0.311-0.8,0.716
		c0,0.501,0.311,0.705,1.028,1.015l0.418,0.179c1.42,0.609,2.222,1.23,2.222,2.626c0,1.505-1.182,2.329-2.77,2.329
		c-1.552,0-2.555-0.74-3.046-1.709L-282.11,422.663z M-288.015,422.808c0.263,0.466,0.523,0.86,1.098,0.86
		c0.549,0,0.917-0.215,0.917-1.05V417h2v5.641c0,1.731-1.201,2.519-2.681,2.519c-1.338,0-2.206-0.693-2.601-1.527L-288.015,422.808z
		"/>
	<polyline style="fill:none;stroke:#E3B551;stroke-width:2;stroke-linecap:square;stroke-miterlimit:10;" points="-276.652,414
		-272.652,421.167 -276.652,428 	"/>
	<path style="fill:none;stroke:#E3B551;stroke-width:2;stroke-linecap:round;stroke-miterlimit:10;" d="M-285.652,414"/>
</g>
<g id="Red">
	<path style="fill:#F74687;" d="M-282.11,446.663c0.358,0.585,0.825,1.015,1.649,1.015c0.693,0,1.135-0.346,1.135-0.824
		c0-0.573-0.455-0.776-1.217-1.11l-0.418-0.179c-1.206-0.514-2.008-1.158-2.008-2.519c0-1.254,0.955-2.208,2.448-2.208
		c1.063,0,1.827,0.37,2.378,1.338l-1.302,0.836c-0.287-0.514-0.596-0.716-1.076-0.716c-0.49,0-0.8,0.311-0.8,0.716
		c0,0.501,0.311,0.705,1.028,1.015l0.418,0.179c1.42,0.609,2.222,1.23,2.222,2.626c0,1.505-1.182,2.329-2.77,2.329
		c-1.552,0-2.555-0.74-3.046-1.709L-282.11,446.663z M-288.015,446.808c0.263,0.466,0.523,0.86,1.098,0.86
		c0.549,0,0.917-0.215,0.917-1.05V441h2v5.641c0,1.731-1.201,2.519-2.681,2.519c-1.338,0-2.206-0.693-2.601-1.527L-288.015,446.808z
		"/>
	<polyline style="fill:none;stroke:#F74687;stroke-width:2;stroke-linecap:square;stroke-miterlimit:10;" points="-276.652,438
		-272.652,445.167 -276.652,452 	"/>
	<path style="fill:none;stroke:#F74687;stroke-width:2;stroke-linecap:round;stroke-miterlimit:10;" d="M-285.652,438"/>
</g>
</svg>
